<?xml version="1.0" standalone="no"?>
<!DOCTYPE svg PUBLIC "-//W3C//DTD SVG 20010904//EN"
 "http://www.w3.org/TR/2001/REC-SVG-20010904/DTD/svg10.dtd">
<svg version="1.0" xmlns="http://www.w3.org/2000/svg"
 width="1100.000000pt" height="1100.000000pt" viewBox="0 0 1100.000000 1100.000000"
 preserveAspectRatio="xMidYMid meet">
<metadata>
Created by potrace 1.14, written by Peter Selinger 2001-2017
</metadata>
<g transform="translate(0.000000,1100.000000) scale(0.100000,-0.100000)"
fill="#000000" stroke="none">
<path d="M1960 9447 l0 -43 93 -12 c220 -27 319 -138 347 -387 14 -123 14
-3292 0 -3438 -18 -191 -79 -328 -178 -404 -50 -38 -155 -73 -218 -73 l-44 0
0 -50 0 -50 780 0 780 0 0 50 0 50 -44 0 c-61 0 -154 31 -210 69 -84 58 -139
152 -172 296 -18 77 -19 154 -19 1820 0 1418 2 1752 13 1805 40 194 143 288
340 312 l92 12 0 43 0 43 -780 0 -780 0 0 -43z"/>
<path d="M5916 8628 c-27 -42 -936 -2210 -936 -2234 0 -32 47 -67 80 -59 14 4
30 12 36 18 24 25 937 2212 936 2241 -1 37 -25 56 -69 56 -23 0 -37 -7 -47
-22z"/>
<path d="M4883 6026 c-90 -29 -197 -113 -209 -163 -8 -30 -26 -30 -204 7 -170
35 -266 38 -327 11 -44 -21 -67 -50 -57 -75 9 -22 27 -20 70 9 59 40 87 40
303 -1 181 -35 200 -41 204 -60 3 -20 -1 -22 -52 -26 -156 -11 -302 -139 -346
-303 -48 -175 20 -342 168 -415 176 -86 385 -23 512 155 84 118 116 259 81
365 -9 29 -16 53 -14 55 2 1 23 13 48 25 111 56 175 118 190 185 10 43 3 72
-18 80 -21 8 -42 -20 -42 -55 0 -34 -57 -100 -112 -132 -24 -14 -96 -46 -161
-73 -129 -53 -194 -100 -228 -167 -27 -52 -22 -93 9 -93 19 0 27 9 37 39 17
49 67 101 125 131 86 43 87 43 105 -20 44 -148 -60 -345 -229 -437 -55 -30
-69 -33 -141 -33 -69 0 -86 4 -126 27 -56 33 -95 77 -122 137 -16 36 -19 60
-15 130 3 74 9 95 38 149 79 148 252 227 373 169 30 -15 41 -16 53 -7 23 20
17 59 -10 70 -13 5 -31 19 -40 31 -21 31 -7 39 70 39 156 0 303 93 292 184 -2
17 -14 37 -29 49 -34 25 -138 32 -196 13z m131 -56 c34 -12 33 -30 -2 -63 -39
-37 -117 -65 -204 -74 l-72 -6 23 31 c28 40 70 70 140 98 63 26 79 28 115 14z"/>
<path d="M5870 5946 l0 -43 54 -6 c142 -14 219 -92 264 -265 16 -62 17 -194
17 -1857 0 -1641 -1 -1796 -17 -1865 -47 -210 -120 -297 -265 -316 l-53 -7 0
-43 0 -44 745 0 745 0 0 44 0 43 -79 7 c-226 19 -321 109 -379 361 -14 63 -16
273 -19 2053 l-3 1982 -505 0 -505 0 0 -44z"/>
<path d="M7370 5946 l0 -43 153 -7 c477 -22 785 -106 1017 -277 208 -153 337
-380 386 -682 l17 -107 44 0 43 0 0 580 0 580 -830 0 -830 0 0 -44z"/>
<path d="M4288 4773 c-25 -28 -1008 -2343 -1008 -2374 0 -58 69 -83 112 -41
19 19 998 2312 1006 2355 7 42 -21 77 -62 77 -19 0 -40 -7 -48 -17z"/>
<path d="M8190 4424 c0 -14 -7 -57 -16 -97 -50 -226 -203 -385 -439 -456 -80
-24 -247 -51 -317 -51 l-48 0 0 -54 0 -53 93 -7 c324 -24 554 -147 656 -350
32 -64 71 -199 71 -248 0 -27 2 -28 50 -28 l50 0 0 685 0 685 -50 0 c-47 0
-50 -2 -50 -26z"/>
</g>
</svg>
